<svg xmlns="http://www.w3.org/2000/svg" version="1.1" xmlns:xlink="http://www.w3.org/1999/xlink" xmlns:svgjs="http://svgjs.dev/svgjs" width="1500" height="1500" viewBox="0 0 1500 1500"><rect width="1500" height="1500" fill="#000517"></rect><g transform="matrix(0.6666666666666666,0,0,0.6666666666666666,249.50000000000006,249.50000000000006)"><svg viewBox="0 0 280 280" data-background-color="#000517" preserveAspectRatio="xMidYMid meet" height="1500" width="1500" xmlns="http://www.w3.org/2000/svg" xmlns:xlink="http://www.w3.org/1999/xlink"><g id="tight-bounds" transform="matrix(1,0,0,1,0.13999999999998636,0.13999999999998636)"><svg viewBox="0 0 279.72 279.72" height="279.72" width="279.72"><g><svg viewBox="0 0 279.72 279.72" height="279.72" width="279.72"><g><svg viewBox="0 0 279.72 279.72" height="279.72" width="279.72"><g id="textblocktransform"><svg viewBox="0 0 279.72 279.72" height="279.72" width="279.72" id="textblock"><g><svg viewBox="0 0 279.72 279.72" height="279.72" width="279.72"><g transform="matrix(1,0,0,1,103.72784815511717,73.92936372216631)"><svg viewBox="0 0 72.26430368976568 131.8612725556674" height="131.8612725556674" width="72.26430368976568"><g id="icon-0"><svg xmlns="http://www.w3.org/2000/svg" xmlns:xlink="http://www.w3.org/1999/xlink" version="1.1" x="0" y="0" viewBox="23.623167510170074 1.5231675101700768 53.05366497965984 96.80746123276839" enable-background="new 0 0 100 100" xml:space="preserve" height="131.8612725556674" width="72.26430368976568" class="icon-jxe-0" data-fill-palette-color="accent" id="jxe-0"><path d="M50 35.4C43.3 35.3 44.3 26.4 44.3 26.4 44.6 20.4 49.6 20.5 50 20.5 50.5 20.5 55.5 20.4 55.7 26.4 55.7 26.5 56.7 35.4 50 35.4M31.3 16.4L28.1 15.2C26.9 14.7 25.6 15.3 25.1 16.5L23.8 19.8C23.3 21 23.9 22.3 25.1 22.8L28.3 24C27.8 26.9 27.8 30 28.5 33L25.4 34.4C24.2 34.9 23.7 36.3 24.2 37.5L25.7 40.8C26.2 42 27.6 42.5 28.8 42L31.9 40.6C32.4 41.3 32.9 41.9 33.4 42.5L37.4 38.2C37.7 37.9 38 37.6 38.4 37.3 37.6 36.3 37 35.3 36.5 34.1 33.1 26.5 36.6 17.7 44.1 14.3 51.7 10.9 60.5 14.4 63.9 21.9 66.2 27.2 65.3 33 62 37.3 62.3 37.6 62.7 37.9 63 38.2L66.9 42.4C67.6 41.5 68.3 40.6 68.9 39.6L72.2 40.9C73.4 41.4 74.7 40.8 75.2 39.6L76.5 36.3C77 35.1 76.4 33.8 75.2 33.3L71.9 32C72.4 29.1 72.4 26.1 71.7 23.1L74.9 21.7C76.1 21.2 76.6 19.8 76.1 18.6L74.6 15.3C74.1 14.1 72.7 13.6 71.5 14.1L68 15.5C66.3 13 64.1 10.9 61.5 9.3L62.8 6C63.3 4.8 62.7 3.5 61.5 3L58.2 1.7C57 1.2 55.7 1.8 55.2 3L53.9 6.3C51 5.8 48 5.9 45 6.6L43.6 3.4C43.1 2.2 41.7 1.7 40.5 2.2L37.2 3.7C36 4.2 35.5 5.6 36 6.8L37.4 10C34.9 11.6 32.8 13.9 31.3 16.4M68.3 55.8L58 64.6 59.7 96C59.8 97.2 58.9 98.2 57.8 98.3 56.6 98.5 55.4 97.7 55.2 96.5L50.8 72.7C50.7 72.3 50.4 72 50 72S49.3 72.3 49.2 72.7L44.8 96.5C44.6 97.7 43.4 98.5 42.2 98.3 41.1 98.1 40.2 97.1 40.3 96L42 64.6 31.7 55.8C29.9 54.3 29.7 51.6 31.2 49.8L39.8 40.5C40 40.2 40.3 40 40.6 39.8 43 38.2 45.7 37.1 45.7 37.1L48 44.4 49.4 40.6C47 37.2 49.7 37.1 50 37.1 50.4 37.1 53.1 37.2 50.6 40.6L52 44.4 54.3 37.1S57 38.2 59.4 39.8C59.7 40 60 40.3 60.2 40.5L68.8 49.8C70.3 51.6 70.1 54.3 68.3 55.8M42.1 58.3L41.1 49.1 36.8 53zM63.2 53L58.9 49.1 57.9 58.3z" fill="#aaa6c3" data-fill-palette-color="accent"></path></svg></g></svg></g><g id="text-0"><path d="M35.82 88.27l-1.137 3.03-9.711-0.006-4.474 11.92 7.316 6.386-1.12 2.983-22.622-19.971 1.566-4.171zM6.915 91.321l11.446 10.014 3.766-10.032z" fill="#aaa6c3" data-fill-palette-color="primary"></path><path d="M41.588 78.876l-16.852-11.981 1.525-2.144 2.065 1.184 0.117-0.165c-0.169-1.258-0.092-2.515 0.231-3.769 0.319-1.249 0.866-2.419 1.641-3.509v0c1.301-1.829 2.821-2.901 4.561-3.214 1.749-0.315 3.711 0.301 5.886 1.847v0l10.821 7.693-1.811 2.547-10.731-7.629c-1.457-1.036-2.746-1.45-3.867-1.241-1.116 0.213-2.124 0.952-3.024 2.217v0c-0.639 0.898-1.102 1.933-1.391 3.105-0.285 1.166-0.284 2.342 0.003 3.528v0l12.637 8.984z" fill="#aaa6c3" data-fill-palette-color="primary"></path><path d="M75.287 44.132l-2.728 2.238-11.837-2.287-3.032 2.487 5.881 7.171-2.416 1.982-19.524-23.805 2.416-1.982 11.987 14.615 3.009-2.468-0.056-11.323 2.697-2.212 0.155 12.859z" fill="#aaa6c3" data-fill-palette-color="primary"></path><path d="M91.6 36.273c-2.652 1.261-5.105 1.448-7.357 0.562-2.246-0.889-4.14-2.955-5.681-6.195v0c-1.532-3.223-1.936-5.989-1.21-8.299 0.731-2.312 2.423-4.099 5.075-5.36v0c2.671-1.27 5.122-1.46 7.353-0.571 2.231 0.889 4.118 2.957 5.662 6.204v0c1.024 2.155 1.533 4.116 1.525 5.884-0.002 1.765-0.467 3.299-1.395 4.603-0.931 1.298-2.255 2.356-3.972 3.172zM90.513 33.988c1.791-0.851 2.89-2.077 3.298-3.677 0.414-1.603 0.003-3.704-1.233-6.302v0c-1.247-2.622-2.619-4.28-4.117-4.974-1.498-0.694-3.146-0.614-4.943 0.24v0c-1.803 0.857-2.912 2.084-3.329 3.681-0.416 1.597-0.009 3.691 1.224 6.284v0c1.25 2.628 2.628 4.291 4.135 4.988 1.507 0.697 3.162 0.617 4.965-0.24z" fill="#aaa6c3" data-fill-palette-color="primary"></path><path d="M111.906 28.692l-3.948-20.296 2.582-0.503 0.68 2.282 0.198-0.039c0.745-1.028 1.667-1.885 2.766-2.571 1.092-0.685 2.295-1.155 3.608-1.411v0c2.203-0.429 4.043-0.157 5.519 0.816 1.484 0.978 2.481 2.776 2.991 5.396v0l2.535 13.032-3.067 0.597-2.514-12.924c-0.341-1.755-0.99-2.943-1.947-3.565-0.955-0.615-2.194-0.775-3.718-0.478v0c-1.082 0.21-2.131 0.641-3.149 1.29-1.01 0.648-1.82 1.501-2.429 2.558v0l2.961 15.219z" fill="#aaa6c3" data-fill-palette-color="primary"></path><path d="M180.778 27.649l5.78-22.766 2.912 0.739-6.939 27.33-3.156-0.802-10.283-26.845-5.781 22.767-2.922-0.742 6.94-27.33 3.156 0.801z" fill="#aaa6c3" data-fill-palette-color="primary"></path><path d="M210.986 24.503c1.63 0.966 2.847 1.965 3.65 2.995 0.809 1.034 1.195 2.181 1.16 3.442-0.034 1.269-0.53 2.713-1.49 4.332v0l-6.847 11.551-2.246-1.331 0.993-2.131-0.174-0.102c-1.038 0.354-2.17 0.444-3.395 0.272-1.226-0.172-2.391-0.585-3.496-1.24v0c-1.185-0.703-2.083-1.501-2.694-2.394-0.611-0.893-0.924-1.841-0.94-2.843-0.013-0.992 0.275-1.986 0.864-2.98v0c0.922-1.555 2.171-2.444 3.748-2.665 1.577-0.222 3.607 0.248 6.091 1.408v0l4.714 2.149 0.818-1.378c0.641-1.081 0.964-2.034 0.968-2.86 0.007-0.816-0.267-1.56-0.821-2.233-0.558-0.667-1.401-1.334-2.528-2.002v0c-0.786-0.466-1.667-0.898-2.642-1.297-0.978-0.392-1.971-0.695-2.976-0.909v0l1.29-2.177c0.939 0.182 1.936 0.491 2.989 0.928 1.057 0.431 2.045 0.919 2.964 1.465zM201.015 40.612c0.908 0.538 1.887 0.876 2.937 1.015 1.042 0.141 2.103 0.051 3.184-0.269v0l2.729-4.605-4.521-2.059c-1.589-0.707-2.864-0.994-3.826-0.862-0.968 0.13-1.732 0.669-2.294 1.617v0c-0.576 0.971-0.719 1.898-0.43 2.781 0.289 0.883 1.03 1.677 2.221 2.382z" fill="#aaa6c3" data-fill-palette-color="primary"></path><path d="M217.671 55.488l14.591-14.65 1.864 1.856-1.507 1.843 0.142 0.142c1.269 0.04 2.496 0.323 3.68 0.848 1.18 0.52 2.243 1.252 3.191 2.196v0c1.591 1.584 2.397 3.26 2.42 5.028 0.023 1.777-0.907 3.611-2.79 5.501v0l-9.369 9.408-2.214-2.205 9.29-9.329c1.262-1.267 1.882-2.47 1.861-3.611-0.026-1.136-0.589-2.251-1.69-3.347v0c-0.781-0.778-1.726-1.406-2.834-1.883-1.104-0.473-2.263-0.665-3.479-0.578v0l-10.941 10.986z" fill="#aaa6c3" data-fill-palette-color="primary"></path><path d="M240.762 85.34c-0.849-1.473-1.285-2.956-1.307-4.448-0.019-1.486 0.444-2.936 1.39-4.35 0.955-1.412 2.445-2.702 4.471-3.87v0c3.179-1.833 6.038-2.411 8.578-1.734 2.539 0.677 4.715 2.588 6.528 5.732v0c0.621 1.077 1.163 2.246 1.626 3.507v0l8.778-5.061 1.561 2.708-26.672 15.378-1.325-2.297 1.928-1.379-0.091-0.157c-1.096-0.206-2.121-0.651-3.073-1.335-0.953-0.684-1.75-1.582-2.392-2.694zM243.457 84.624c0.527 0.914 1.211 1.676 2.051 2.286 0.84 0.609 1.815 0.982 2.925 1.117v0l11.319-6.526c-0.146-0.536-0.356-1.121-0.629-1.755-0.273-0.634-0.58-1.248-0.922-1.842v0c-1.319-2.288-2.871-3.655-4.656-4.1-1.791-0.442-3.923 0.051-6.398 1.478v0c-2.434 1.403-3.906 2.88-4.416 4.431-0.513 1.545-0.271 3.182 0.726 4.911z" fill="#aaa6c3" data-fill-palette-color="primary"></path><path d="M251.569 109.397l-0.979-2.989 19.651-6.433 0.978 2.989zM274.968 100.093c-0.217-0.664-0.222-1.229-0.013-1.693 0.209-0.464 0.604-0.792 1.185-0.982v0c0.588-0.192 1.103-0.163 1.545 0.088 0.443 0.251 0.773 0.709 0.991 1.373v0c0.217 0.664 0.222 1.229 0.013 1.693-0.211 0.458-0.61 0.783-1.198 0.975v0c-0.581 0.19-1.092 0.163-1.533-0.081-0.443-0.251-0.773-0.709-0.99-1.373z" fill="#aaa6c3" data-fill-palette-color="primary"></path><path d="M0.878 142.551c0-6.495 5.266-11.761 11.761-11.761 6.495 0 11.761 5.266 11.761 11.761 0 6.495-5.266 11.761-11.761 11.761-6.495 0-11.761-5.266-11.761-11.761z" fill="#aaa6c3" data-fill-palette-color="primary"></path><path d="M254.674 142.551c0-6.495 5.266-11.761 11.761-11.761 6.495 0 11.761 5.266 11.761 11.761 0 6.495-5.266 11.761-11.761 11.761-6.495 0-11.761-5.266-11.761-11.761z" fill="#aaa6c3" data-fill-palette-color="primary"></path></g><g id="text-1"><path d="M8.523 181.867l25.042-8.586c0.667 1.157 1.248 2.272 1.744 3.345 0.496 1.073 0.952 2.217 1.368 3.432v0c1.208 3.522 1.412 6.418 0.614 8.688-0.801 2.264-2.683 3.904-5.646 4.92v0c-2.88 0.987-5.367 0.831-7.461-0.469-2.094-1.3-3.786-3.832-5.076-7.595v0c-0.416-1.214-0.784-2.474-1.104-3.778v0l-8.497 2.913zM21.425 184.839c0.665 1.939 1.435 3.43 2.312 4.473 0.876 1.042 1.88 1.682 3.013 1.919 1.133 0.237 2.43 0.105 3.892-0.397v0c2.2-0.754 3.601-1.931 4.204-3.53 0.607-1.608 0.472-3.689-0.404-6.245v0c-0.512-1.494-1.131-2.905-1.857-4.234v0l-12.197 4.182c0.221 1.182 0.566 2.46 1.037 3.832z" fill="#aaa6c3" data-fill-palette-color="secondary"></path><path d="M18.858 207.495l17.256-9.584 1.209 2.177-2.182 1.511 0.088 0.159c1.127 0.174 2.177 0.625 3.15 1.352 0.976 0.734 1.755 1.624 2.336 2.67v0c0.3 0.541 0.549 1.098 0.745 1.673v0l-2.424 1.346c-0.176-0.525-0.45-1.122-0.822-1.792v0c-0.519-0.934-1.25-1.773-2.194-2.517-0.938-0.748-1.966-1.214-3.084-1.401v0l-12.629 7.015z" fill="#aaa6c3" data-fill-palette-color="secondary"></path><path d="M32.82 228.946c-1.723-2.21-2.405-4.457-2.046-6.739 0.358-2.273 1.892-4.466 4.6-6.577v0c2.687-2.095 5.182-3.043 7.485-2.844 2.307 0.204 4.322 1.412 6.045 3.621v0c1.735 2.226 2.42 4.471 2.054 6.734-0.366 2.263-1.904 4.45-4.613 6.561v0c-1.797 1.401-3.52 2.284-5.169 2.65-1.644 0.361-3.169 0.242-4.575-0.359-1.401-0.595-2.662-1.611-3.781-3.047zM34.728 227.459c1.161 1.489 2.531 2.262 4.109 2.319 1.583 0.052 3.456-0.764 5.619-2.45v0c2.189-1.707 3.451-3.329 3.785-4.868 0.34-1.543-0.075-3.064-1.245-4.565v0c-1.169-1.5-2.543-2.278-4.121-2.335-1.573-0.061-3.44 0.752-5.603 2.438v0c-2.194 1.711-3.459 3.34-3.795 4.888-0.335 1.548 0.082 3.072 1.251 4.573z" fill="#aaa6c3" data-fill-palette-color="secondary"></path><path d="M50.62 247.34c-1.224-1.071-2.075-2.277-2.555-3.617-0.484-1.335-0.514-2.79-0.09-4.366 0.425-1.567 1.372-3.189 2.842-4.868v0c2.311-2.64 4.716-4.045 7.214-4.216 2.508-0.171 5.067 0.885 7.676 3.17v0c0.895 0.784 1.742 1.673 2.542 2.667v0l6.375-7.281 2.245 1.965-19.363 22.119-1.897-1.661 1.321-1.845-0.137-0.119c-1.057 0.156-2.122 0.072-3.196-0.252-1.065-0.325-2.057-0.89-2.977-1.696zM52.822 245.865c0.759 0.664 1.612 1.138 2.56 1.423 0.948 0.294 1.942 0.333 2.979 0.117v0l8.221-9.391c-0.291-0.433-0.657-0.897-1.1-1.391-0.437-0.49-0.904-0.952-1.399-1.386v0c-1.896-1.66-3.72-2.413-5.472-2.259-1.753 0.145-3.53 1.247-5.332 3.305v0c-1.762 2.013-2.636 3.802-2.622 5.368 0.013 1.557 0.735 2.961 2.165 4.214z" fill="#aaa6c3" data-fill-palette-color="secondary"></path><path d="M71.755 262.206c-1.823-1.064-2.963-2.403-3.421-4.017-0.453-1.611-0.044-3.504 1.226-5.68v0l6.45-11.049 2.577 1.504-6.373 10.918c-0.857 1.468-1.14 2.72-0.849 3.754 0.297 1.037 1.058 1.913 2.283 2.628v0c0.911 0.532 1.931 0.871 3.06 1.016 1.129 0.145 2.23 0.033 3.302-0.337v0l7.466-12.79 2.577 1.505-9.951 17.047-2.15-1.255 0.911-2.002-0.157-0.091c-1.183 0.267-2.366 0.3-3.548 0.1-1.189-0.204-2.323-0.62-3.402-1.251z" fill="#aaa6c3" data-fill-palette-color="secondary"></path><path d="M97.357 273.644c-2.837-1.009-4.718-2.57-5.642-4.682-0.919-2.11-0.801-4.786 0.352-8.028v0c1.156-3.248 2.812-5.377 4.968-6.386 2.15-1.011 4.764-0.97 7.841 0.125v0c1.532 0.545 2.856 1.216 3.971 2.012v0l-0.848 2.384c-1.197-0.825-2.426-1.462-3.686-1.911v0c-2.305-0.82-4.209-0.862-5.711-0.127-1.503 0.735-2.701 2.36-3.596 4.874v0c-0.91 2.558-1.057 4.596-0.441 6.113 0.616 1.517 1.959 2.644 4.03 3.381v0c1.292 0.46 2.873 0.716 4.745 0.768v0l-0.848 2.384c-1.713 0.004-3.425-0.298-5.135-0.907z" fill="#aaa6c3" data-fill-palette-color="secondary"></path><path d="M119.459 276.264c0.681 0.127 1.566 0.179 2.657 0.157v0l-0.459 2.467c-1.157 0.044-2.26-0.031-3.311-0.227v0c-2.18-0.406-3.739-1.267-4.677-2.583-0.944-1.318-1.206-3.106-0.785-5.366v0l1.979-10.624-3.826-0.713 0.451-2.418 3.825 0.712 1.822-6.972 2.428 0.452-1.316 7.067 6.709 1.25-0.45 2.418-6.71-1.25-1.888 10.139c-0.31 1.665-0.169 2.929 0.422 3.79 0.599 0.857 1.642 1.424 3.129 1.701z" fill="#aaa6c3" data-fill-palette-color="secondary"></path><path d="M155.675 271.69l7.791-21.058 3.572-0.352 2.641 26.796-2.849 0.281-2.211-22.432-7.365 19.628-2.699 0.266-11.045-17.611 2.191 22.232-2.839 0.28-2.641-26.797 3.561-0.351z" fill="#aaa6c3" data-fill-palette-color="secondary"></path><path d="M179.746 252.673c1.705-0.601 3.182-0.879 4.43-0.834 1.248 0.045 2.327 0.466 3.235 1.264 0.902 0.801 1.651 2.047 2.248 3.74v0l4.262 12.095-2.348 0.827-0.953-2.037-0.19 0.067c-0.374 0.98-0.999 1.866-1.874 2.659-0.877 0.787-1.896 1.384-3.056 1.793v0c-1.236 0.436-2.366 0.606-3.39 0.511-1.033-0.099-1.919-0.45-2.658-1.051-0.739-0.602-1.292-1.422-1.659-2.462v0c-0.574-1.629-0.458-3.088 0.35-4.378 0.798-1.293 2.385-2.494 4.759-3.601v0l4.466-2.129-0.51-1.446c-0.4-1.135-0.9-1.956-1.499-2.464-0.6-0.508-1.313-0.763-2.139-0.764-0.829-0.007-1.833 0.197-3.013 0.613v0c-0.824 0.29-1.679 0.674-2.566 1.15-0.889 0.47-1.722 1.009-2.497 1.617v0l-0.805-2.281c0.711-0.571 1.551-1.109 2.52-1.615 0.961-0.51 1.923-0.934 2.887-1.274zM185.424 269.848c0.951-0.335 1.798-0.844 2.54-1.526 0.745-0.676 1.331-1.51 1.759-2.501v0l-1.699-4.821-4.278 2.053c-1.488 0.731-2.479 1.49-2.972 2.276-0.501 0.782-0.576 1.671-0.225 2.667v0c0.36 1.021 0.952 1.692 1.778 2.013 0.822 0.33 1.854 0.277 3.097-0.161z" fill="#aaa6c3" data-fill-palette-color="secondary"></path><path d="M202.946 264.327l-9.83-17.117 2.177-1.25 1.317 1.848 0.175-0.101c0.352-1.155 0.918-2.213 1.7-3.173 0.776-0.957 1.717-1.753 2.825-2.389v0c1.859-1.068 3.608-1.39 5.246-0.967 1.632 0.427 3.083 1.744 4.351 3.953v0l6.315 10.998-2.587 1.486-6.261-10.901c-0.85-1.48-1.801-2.353-2.851-2.618-1.051-0.265-2.22-0.027-3.509 0.713v0c-0.915 0.525-1.728 1.236-2.437 2.132-0.716 0.899-1.188 1.919-1.418 3.058v0l7.375 12.842z" fill="#aaa6c3" data-fill-palette-color="secondary"></path><path d="M216.854 230.476c1.369-1.181 2.642-1.979 3.821-2.392 1.179-0.414 2.337-0.414 3.474-0.002 1.132 0.417 2.284 1.304 3.457 2.663v0l8.378 9.708-1.885 1.627-1.631-1.55-0.152 0.132c0.009 1.049-0.25 2.102-0.776 3.159-0.53 1.052-1.261 1.98-2.191 2.784v0c-0.992 0.856-1.982 1.427-2.971 1.712-0.998 0.284-1.951 0.281-2.858-0.01-0.908-0.291-1.722-0.853-2.442-1.688v0c-1.129-1.308-1.552-2.709-1.271-4.203 0.272-1.495 1.312-3.192 3.119-5.089v0l3.382-3.611-1.001-1.16c-0.786-0.911-1.551-1.494-2.295-1.749-0.744-0.255-1.501-0.232-2.271 0.069-0.775 0.296-1.635 0.852-2.581 1.669v0c-0.661 0.571-1.318 1.24-1.97 2.007-0.656 0.762-1.235 1.567-1.736 2.416v0l-1.581-1.831c0.454-0.791 1.04-1.599 1.758-2.423 0.709-0.825 1.45-1.571 2.223-2.238zM228.403 244.398c0.763-0.659 1.366-1.441 1.809-2.347 0.447-0.901 0.689-1.891 0.726-2.97v0l-3.339-3.869-3.236 3.471c-1.119 1.223-1.765 2.291-1.937 3.203-0.181 0.911 0.073 1.766 0.762 2.565v0c0.707 0.819 1.504 1.228 2.39 1.226 0.886 0.008 1.827-0.418 2.825-1.279z" fill="#aaa6c3" data-fill-palette-color="secondary"></path><path d="M253.32 232.967c-0.629 0.788-1.356 1.571-2.182 2.347-0.827 0.767-1.654 1.427-2.481 1.98v0l-1.947-1.553c1.865-1.272 3.4-2.661 4.602-4.169v0c0.985-1.235 1.62-2.366 1.907-3.393 0.286-1.027 0.213-2.018-0.22-2.974-0.433-0.956-1.261-1.922-2.485-2.898v0l-1.348-1.075-0.101 0.127c0.16 1.039 0.092 2.089-0.205 3.15-0.297 1.062-0.83 2.076-1.601 3.043v0c-0.96 1.203-2.079 2.068-3.359 2.594-1.284 0.532-2.714 0.616-4.29 0.254-1.575-0.354-3.235-1.226-4.979-2.618v0c-2.743-2.188-4.254-4.524-4.533-7.007-0.281-2.493 0.669-5.106 2.847-7.839v0c0.7-0.877 1.472-1.71 2.316-2.498 0.839-0.793 1.688-1.486 2.549-2.081v0l14.194 11.322c1.718 1.37 2.895 2.756 3.531 4.158 0.632 1.407 0.757 2.856 0.375 4.348-0.381 1.501-1.244 3.095-2.59 4.782zM245.82 225.282c0.637-0.799 1.093-1.677 1.367-2.636 0.275-0.959 0.304-1.933 0.087-2.922v0l-9.804-7.821c-0.98 0.722-1.917 1.643-2.809 2.763v0c-1.505 1.886-2.133 3.698-1.885 5.434 0.239 1.738 1.417 3.451 3.534 5.14v0c2.086 1.664 3.903 2.447 5.451 2.349 1.557-0.099 2.91-0.868 4.059-2.307z" fill="#aaa6c3" data-fill-palette-color="secondary"></path><path d="M256.531 192.987l0.813 0.425-6.28 12.018c2.167 1.034 3.999 1.278 5.497 0.734 1.492-0.548 2.792-1.882 3.9-4.002v0c0.753-1.442 1.32-3.143 1.701-5.106v0l2.144 1.12c-0.381 1.962-1.002 3.768-1.864 5.419v0c-1.525 2.919-3.405 4.731-5.639 5.436-2.231 0.7-4.901 0.237-8.01-1.387v0c-1.966-1.027-3.466-2.19-4.501-3.489-1.029-1.296-1.59-2.681-1.685-4.156-0.094-1.475 0.268-2.995 1.087-4.562v0c1.214-2.323 2.908-3.701 5.084-4.135 2.184-0.436 4.768 0.126 7.753 1.685zM245.588 196.449c-0.803 1.537-0.922 2.969-0.356 4.295 0.566 1.327 1.911 2.576 4.036 3.747v0l4.963-9.497c-2.172-1.082-3.958-1.488-5.358-1.219-1.397 0.264-2.492 1.155-3.285 2.674z" fill="#aaa6c3" data-fill-palette-color="secondary"></path><path d="M268.229 189.354l-18.705-6.307 0.796-2.36 2.586 0.596 0.058-0.172c-0.63-0.95-1.004-2.03-1.12-3.24-0.115-1.216 0.019-2.391 0.401-3.524v0c0.198-0.586 0.443-1.145 0.736-1.678v0l2.627 0.886c-0.269 0.484-0.527 1.088-0.771 1.815v0c-0.341 1.013-0.47 2.118-0.385 3.317 0.079 1.197 0.426 2.271 1.041 3.223v0l13.689 4.616z" fill="#aaa6c3" data-fill-palette-color="secondary"></path></g></svg></g></svg></g></svg></g></svg></g><defs></defs></svg><rect width="279.72" height="279.72" fill="none" stroke="none" visibility="hidden"></rect></g></svg></g></svg>